<?xml version="1.0" encoding="UTF-8" standalone="no"?>
<!-- Created with Inkscape (http://www.inkscape.org/) -->

<svg
   width="170.18314mm"
   height="186.3933mm"
   viewBox="0 0 170.18314 186.3933"
   version="1.1"
   id="svg1"
   xml:space="preserve"
   inkscape:version="1.3.2 (091e20e, 2023-11-25)"
   sodipodi:docname="favicon.svg"
   xmlns:inkscape="http://www.inkscape.org/namespaces/inkscape"
   xmlns:sodipodi="http://sodipodi.sourceforge.net/DTD/sodipodi-0.dtd"
   xmlns="http://www.w3.org/2000/svg"
   xmlns:svg="http://www.w3.org/2000/svg"><sodipodi:namedview
     id="namedview1"
     pagecolor="#ffffff"
     bordercolor="#999999"
     borderopacity="1"
     inkscape:showpageshadow="0"
     inkscape:pageopacity="0"
     inkscape:pagecheckerboard="0"
     inkscape:deskcolor="#d1d1d1"
     inkscape:document-units="mm"
     inkscape:zoom="0.52261439"
     inkscape:cx="355.90294"
     inkscape:cy="589.34466"
     inkscape:window-width="1680"
     inkscape:window-height="997"
     inkscape:window-x="0"
     inkscape:window-y="25"
     inkscape:window-maximized="1"
     inkscape:current-layer="layer1" /><defs
     id="defs1" /><g
     inkscape:label="Ebene 1"
     inkscape:groupmode="layer"
     id="layer1"
     transform="translate(-3.9659704,-8.0955234)"><path
       id="rect1"
       style="fill:#b33232;fill-opacity:0;fill-rule:evenodd;stroke:#000000 icc-color(sRGB-IEC61966-2, 0.1, 0, 0, 0);stroke-width:0.1;paint-order:stroke fill markers"
       d="m 62.234422,132.89647 c -4.260541,0.59029 -8.444242,1.60796 -12.654525,2.46858 0.640203,1.85159 1.27974,3.70347 1.932699,5.55057 3.423887,9.58094 6.762804,19.17901 10.343555,28.69644 0.997708,2.41442 1.764226,4.95783 3.184301,7.17062 1.734419,2.75271 5.317065,4.33519 8.591207,3.73776 2.398918,-0.41054 4.891241,-2.05953 5.246192,-4.63228 0.109613,-2.0447 -0.982831,-3.8986 -1.643311,-5.77277 -3.857404,-9.39076 -7.674724,-18.79765 -11.426176,-28.23084 -1.191405,-2.9961 -2.382537,-5.99198 -3.573942,-8.98808 z" /><path
       id="path7"
       style="fill:#b33232;fill-opacity:0;fill-rule:evenodd;stroke:#000000 icc-color(sRGB-IEC61966-2, 0.1, 0, 0, 0);stroke-width:0.1;paint-order:stroke fill markers"
       d="m 48.154661,74.652479 c -5.606468,0.894513 -11.391171,0.891327 -16.832564,2.655135 -3.736967,1.163379 -7.128003,3.463806 -9.521899,6.605798 -2.49495,3.166098 -3.748361,7.229062 -4.069519,11.142989 -0.4357,5.987599 0.615606,12.314209 3.365169,17.775659 1.581944,3.12046 3.960543,5.96069 6.894153,7.80676 4.005457,2.57975 8.911089,3.38333 13.606404,3.12901 4.591571,-0.1667 9.053403,-1.32563 13.531474,-2.24483 0.725526,0.006 1.067808,-0.24568 0.668176,-0.93017 -2.002406,-5.98697 -3.621589,-12.10012 -4.821411,-18.29811 -1.730228,-9.04078 -2.989321,-18.233572 -2.753837,-27.45879 -0.03294,-0.04911 0.08468,-0.265311 -0.06615,-0.183451 z" /><path
       id="path6"
       style="fill:#b33232;fill-opacity:0;fill-rule:evenodd;stroke:#000000 icc-color(sRGB-IEC61966-2, 0.1, 0, 0, 0);stroke-width:0.1;paint-order:stroke fill markers"
       d="m 129.30836,74.119178 c -0.92373,0.01807 -1.82848,0.05529 -2.7714,0.203088 0.14806,1.426351 0.32514,2.849246 0.49919,4.272608 0.78934,6.204375 1.52078,12.479221 2.86443,18.555973 -0.0731,0.800945 0.78608,0.364208 1.27537,0.413928 2.20323,-0.100143 4.61384,-0.38933 6.4487,-1.818493 3.09173,-2.255332 4.08406,-6.495041 3.7021,-10.059335 -0.30329,-4.241158 -2.6077,-8.491292 -6.48539,-10.444323 -1.64384,-1.042003 -3.64021,-1.158576 -5.533,-1.123446 z" /><path
       id="path5"
       style="fill:#b33232;fill-opacity:0;fill-rule:evenodd;stroke:#000000 icc-color(sRGB-IEC61966-2, 0.1, 0, 0, 0);stroke-width:0.1;paint-order:stroke fill markers"
       d="m 113.30882,41.740276 c -3.22956,3.345365 -6.57902,6.588907 -10.20919,9.500195 -8.128171,6.331146 -17.03448,11.700121 -26.526031,15.726689 -5.214646,2.287661 -10.695421,3.854183 -16.151469,5.445145 0.135989,4.999623 0.13397,9.973353 0.564823,14.930872 0.775291,8.777023 2.481167,17.381163 5.052922,25.791703 0.673342,2.35044 1.541632,4.64497 2.260844,6.97426 11.287904,-0.61778 22.681273,0.31848 33.667711,3.00808 9.06404,2.19869 17.74016,5.75201 26.04544,9.9627 -0.75666,-1.75657 -1.45507,-3.53618 -2.12907,-5.32577 -3.10498,-8.4059 -5.50537,-17.06418 -7.48688,-25.79998 -2.70726,-12.381685 -4.33477,-24.997373 -5.0276,-37.649897 -0.27815,-7.17332 -0.26973,-14.358008 -0.10077,-21.534603 0.0131,-0.343098 0.0263,-0.686295 0.0393,-1.029394 z" /><path
       id="path4"
       style="fill:#b33232;fill-opacity:0;fill-rule:evenodd;stroke:#000000 icc-color(sRGB-IEC61966-2, 0.1, 0, 0, 0);stroke-width:0.1;paint-order:stroke fill markers"
       d="m 132.16142,22.065508 c -1.51868,0.09246 -2.71185,1.449036 -3.46129,2.691825 -1.72376,3.071734 -2.22989,6.552724 -2.69699,10.00094 -1.06469,9.122483 -1.06206,18.33264 -0.60875,27.507365 2.58026,-0.308241 5.19213,-0.367751 7.78402,-0.189653 6.70626,0.549162 12.85344,4.667596 16.32562,10.369393 1.93954,3.220307 3.2513,6.856354 3.64991,10.602454 0.25454,2.998597 0.14203,6.032989 -0.24495,9.01547 -0.71009,5.780806 -4.05028,11.222428 -9.0196,14.299388 -2.90103,1.84772 -6.31554,2.61643 -9.69037,3.00808 -0.59886,0.099 -1.53351,-0.0295 -1.02061,0.82114 2.19612,7.666 4.69062,15.28634 8.15971,22.48235 1.70863,3.40622 3.50169,6.82214 6.06371,9.65781 1.29691,1.2995 2.63781,2.888 4.56717,3.15226 1.26195,0.21925 2.15877,-0.81606 2.87527,-1.68672 2.25117,-2.92712 3.38552,-6.52435 4.03387,-10.08465 1.11564,-6.20429 1.46465,-12.4566 1.54615,-18.7508 0.0928,-12.53272 -0.99934,-25.037739 -3.26181,-37.343971 -2.42397,-12.624648 -5.66425,-25.180017 -10.70064,-37.063371 -2.15193,-4.882054 -4.38672,-9.762875 -7.768,-13.942301 -1.60802,-1.849305 -3.31041,-4.025052 -5.86166,-4.505151 -0.2299,-0.04241 -0.45381,-0.05507 -0.67076,-0.04186 z" /><path
       id="path1"
       style="fill:#f95200;fill-opacity:1"
       d="m 131.64453,8.1035156 c -5.93497,0.2592215 -11.33691,3.7524584 -14.91992,8.3515624 -4.94873,6.043372 -9.58397,12.364181 -15.25854,17.747469 C 89.539586,46.0622 74.320948,54.596651 58.006799,58.580589 51.584606,60.231431 44.987546,60.991987 38.423205,61.828036 32.969457,62.54256 27.437714,63.531638 22.508749,66.09531 16.439261,69.104208 11.339801,74.016407 8.154869,79.999716 4.7309199,86.225623 3.6806479,93.489336 4.0293995,100.5141 c 0.3723848,6.5617 2.0249913,13.08156 5.0024139,18.94938 3.9990736,7.63144 10.9030526,13.83656 19.1798136,16.42354 2.351445,0.79277 4.779674,1.33436 7.221967,1.75751 5.565145,14.69565 10.634262,29.57823 16.534318,44.14395 3.416248,6.99185 10.577037,12.22411 18.425056,12.6903 4.299463,0.0957 8.772736,-0.46909 12.517211,-2.73143 4.22635,-2.43498 7.564849,-6.41359 9.214202,-11.00376 1.367752,-4.01707 0.979271,-8.47532 -0.616756,-12.36693 -1.602431,-4.24999 -3.521758,-8.37082 -5.227083,-12.57989 -3.047829,-7.30774 -5.891007,-14.69338 -8.663354,-22.12294 8.347061,0.13757 16.640653,1.62777 24.666012,3.89844 8.30458,2.41926 16.24358,5.93615 23.8083,10.10631 6.15019,3.3162 12.1192,6.97745 18.41478,10.01636 4.0404,1.79033 8.75534,2.3333 12.97183,0.82211 4.71879,-1.60724 8.37064,-5.42805 10.65463,-9.76429 2.88441,-5.37506 4.11499,-11.44662 4.94194,-17.436 0.8741,-6.95991 1.04432,-13.9878 1.07443,-20.9956 -0.16379,-13.431272 -1.9382,-26.797777 -4.50946,-39.964958 -3.04771,-15.215788 -7.55286,-30.276944 -14.87012,-44.016358 -3.28657,-5.996291 -7.49956,-11.738803 -13.33212,-15.472855 -2.92894,-1.7875374 -6.34071,-2.8762514 -9.79288,-2.7634734 z m 1.08203,15.6230464 c 2.24631,0.609907 3.62632,2.657836 5.07042,4.322174 4.04437,5.282237 6.56406,11.511217 9.00668,17.644418 4.31568,11.337887 7.19409,23.149196 9.28632,35.075697 2.24024,13.241643 3.13934,26.705519 2.56627,40.094429 -0.29023,5.24612 -0.72533,10.49872 -2.04077,15.56737 -0.76029,2.70157 -1.88252,5.36682 -3.95337,7.35646 -1.12466,0.38795 -2.06676,-0.65106 -2.85215,-1.30819 -3.57203,-3.31083 -5.70865,-7.79047 -7.79438,-12.10916 -2.88788,-6.28399 -5.03778,-12.87324 -6.98824,-19.49867 4.73313,-0.55377 9.48627,-2.2654 12.93555,-5.65625 4.20004,-3.97781 6.56477,-9.687339 6.77034,-15.43761 0.45657,-5.070024 -0.039,-10.328587 -2.20841,-14.986297 -2.88596,-6.643115 -8.80319,-12.041481 -15.90763,-13.742105 -3.16794,-0.796137 -6.46576,-0.759856 -9.70117,-0.521484 -0.38953,-9.772193 -0.38942,-19.596615 1.24645,-29.260111 0.49634,-2.491196 1.16859,-5.133441 2.96058,-7.028952 0.4231,-0.395291 1.01288,-0.728324 1.60351,-0.511719 z m -21.14844,25.435547 c -0.0924,9.625625 0.19671,19.270454 1.32465,28.833705 1.92398,17.566072 5.76154,34.968376 11.96637,51.529576 0.33639,0.64586 -0.67024,-0.17207 -0.99207,-0.22431 -10.53109,-4.93974 -21.76589,-8.474 -33.323794,-9.93259 C 83.558743,118.43405 76.479238,118.1539 69.429688,118.46875 66.224127,109.15091 63.836302,99.464537 62.822266,89.691406 62.21376,84.329775 62.14547,78.991646 62.039062,73.59375 c 7.136448,-2.024689 14.207634,-4.396856 20.83025,-7.775312 8.69146,-4.299369 16.924568,-9.583745 24.271508,-15.922402 1.53562,-1.354805 3.0299,-2.756956 4.48027,-4.202677 -0.0143,1.15625 -0.0286,2.3125 -0.043,3.46875 z m 18.79297,26.535157 c 3.57684,-0.03391 6.7179,2.527362 8.18284,5.664394 1.48855,3.181181 1.74478,7.036514 0.3406,10.290684 -0.83045,1.933436 -2.53988,3.46736 -4.6112,3.928365 -1.01791,0.276269 -2.00187,0.308467 -3.02161,0.397807 -1.02402,-5.163115 -1.76993,-10.362696 -2.39283,-15.58128 -0.19516,-1.550889 -0.37753,-3.103344 -0.56616,-4.655048 0.68891,-0.03485 1.3789,-0.02948 2.06836,-0.04492 z m -83.765621,0.841796 c 0.01049,11.447415 1.890174,22.813673 4.57026,33.914328 0.823455,3.26859 1.751199,6.51321 2.826224,9.70872 -5.298522,1.07592 -10.69364,2.41249 -16.089844,1.98437 -4.315881,-0.30802 -8.824133,-1.92898 -11.907369,-5.15352 -4.017354,-4.09314 -5.868486,-9.88949 -6.555521,-15.41484 -0.271485,-2.516314 -0.316763,-5.082626 -0.01922,-7.500808 0.287619,-2.236851 0.917696,-4.420981 1.888273,-6.385783 2.019105,-4.239902 5.933706,-7.40474 10.37269,-8.832723 2.318202,-0.807228 4.68088,-1.154206 7.154392,-1.501778 2.583234,-0.330995 5.180303,-0.544013 7.762064,-0.886325 z M 64.332031,142.4707 c 4.17608,10.54099 8.538164,21.00997 12.707434,31.55438 0.438219,1.18481 0.308491,2.68317 -0.754997,3.49839 -2.711803,2.53549 -7.468755,1.73511 -9.594742,-1.17894 -1.559735,-2.16745 -2.308917,-4.77995 -3.303231,-7.22892 C 59.31617,158.3191 55.51044,147.4249 51.675781,136.54297 c 3.177923,-0.65566 6.342453,-1.38679 9.550781,-1.88281 1.035157,2.60351 2.070313,5.20703 3.105469,7.81054 z" /></g></svg>
